<svg xmlns="http://www.w3.org/2000/svg" height="20" width="20"><path d="M2.688 16.667V3.333L15.917 8.75q-.125-.083-.479-.167-.355-.083-.834-.083-.896 0-1.583.146-.688.146-1.417.604L4.812 6.542v1.646L9.646 10l-4.834 1.812v1.646l4.542-1.791q-.25.541-.385 1.093-.136.552-.157 1.032v.177q0 .073.042.177ZM14.312 18q-1.666 0-2.833-1.167-1.167-1.166-1.167-2.833 0-1.667 1.167-2.833Q12.646 10 14.312 10q1.667 0 2.834 1.167 1.166 1.166 1.166 2.833 0 1.667-1.166 2.833Q15.979 18 14.312 18Zm1.146-1.917.938-.937-1.417-1.417v-1.896h-1.312v2.438ZM4.812 11.125V6.542 13.458Z"/></svg>